<?xml version="1.0" standalone="no"?>
<!DOCTYPE svg PUBLIC "-//W3C//DTD SVG 20010904//EN"
 "http://www.w3.org/TR/2001/REC-SVG-20010904/DTD/svg10.dtd">
<svg version="1.0" xmlns="http://www.w3.org/2000/svg"
 width="243.000000pt" height="243.000000pt" viewBox="0 0 243.000000 243.000000"
 preserveAspectRatio="xMidYMid meet">
<metadata>
Created by potrace 1.11, written by Peter Selinger 2001-2013
</metadata>
<g transform="translate(0.000000,243.000000) scale(0.100000,-0.100000)"
fill="#000000" stroke="none">
<path d="M1098 2355 c-1 -1 -23 -6 -48 -9 -245 -33 -481 -155 -665 -342 -145
-148 -261 -367 -301 -569 -2 -11 -7 -31 -10 -45 -3 -14 -7 -90 -9 -170 -4
-211 30 -363 121 -540 52 -101 57 -109 110 -180 122 -162 285 -288 484 -372
36 -16 65 -28 65 -27 0 1 25 -6 56 -15 242 -71 525 -56 754 39 92 38 228 117
298 174 87 70 267 286 267 319 0 6 3 12 8 14 12 5 80 159 101 233 38 127 50
222 46 360 -4 137 -7 166 -31 255 -8 30 -17 62 -19 70 -18 72 -116 274 -145
300 -3 3 -18 23 -33 46 -29 43 -117 137 -177 189 -107 93 -307 200 -432 231
-10 2 -27 6 -38 9 -95 24 -184 34 -297 34 -56 -1 -103 -2 -105 -4z"/>
</g>
</svg>
